<svg width="93" height="99" viewBox="0 0 93 99" fill="none" xmlns="http://www.w3.org/2000/svg">
<path d="M0.0954308 22.5265C0.278144 21.6945 0.695943 20.8265 1.9889 20.772C3.21902 20.7188 4.09534 21.6969 4.07323 23.0193C4.05112 24.4172 4.06858 25.8164 4.06858 27.2848C5.3755 26.9419 6.62307 26.5952 7.87879 26.2918C9.78623 25.8312 11.6983 25.3867 13.6151 24.9707C14.0166 24.884 14.1597 24.7354 14.1504 24.2922C14.1236 22.9933 14.1225 21.692 14.1469 20.3931C14.1725 19.0126 15 18.1037 16.1754 18.1074C17.274 18.1112 18.148 18.9804 18.1736 20.1566C18.2015 21.4307 18.1794 22.7061 18.1794 24.0396C19.413 23.8328 20.5745 23.6285 21.7382 23.4477C23.0801 23.2385 24.4231 23.0329 25.7696 22.8621C26.1571 22.8125 26.3038 22.6788 26.291 22.2529C26.2642 21.3453 26.2747 20.4377 26.2851 19.5301C26.3014 18.1681 27.1289 17.2395 28.3078 17.242C29.4832 17.2457 30.2967 18.1706 30.3153 19.545C30.3269 20.4476 30.3176 21.3502 30.3176 22.2937C33.0304 22.082 35.671 21.8752 38.4175 21.661C38.4175 20.8785 38.3966 20.0836 38.4222 19.2899C38.4583 18.1731 39.2811 17.3026 40.3145 17.2469C41.4783 17.1838 42.4 18.0839 42.4419 19.3531C42.4652 20.0464 42.4465 20.7411 42.4465 21.4146C44.4971 21.4146 46.4686 21.4146 48.525 21.4146C48.525 20.7324 48.5191 20.1207 48.5261 19.5091C48.5413 18.1879 49.3536 17.2618 50.5092 17.2432C51.6893 17.2246 52.5295 18.1471 52.5563 19.5066C52.5691 20.122 52.5586 20.7373 52.5586 21.458C53.9168 21.458 55.2202 21.458 56.5946 21.458C56.5946 21.2945 56.5946 21.0729 56.5946 20.8525C56.5946 18.1087 56.583 15.3636 56.6097 12.6198C56.6132 12.3128 56.7587 11.9339 56.96 11.716C59.0397 9.46494 61.1427 7.23745 63.2479 5.01368C63.4342 4.81681 63.6681 4.64223 63.9101 4.53822C67.4131 3.03507 70.9196 1.54058 74.433 0.0659077C74.6542 -0.0269559 74.9719 -0.0195259 75.1953 0.0745759C78.6901 1.5443 82.178 3.03259 85.6623 4.53203C85.9219 4.64347 86.1721 4.83043 86.3722 5.04092C88.4647 7.24984 90.5549 9.46247 92.6194 11.7011C92.8312 11.9314 92.9848 12.335 92.9848 12.6582C93.0011 40.5965 93 68.5336 93 96.4719C93 98.1435 92.2063 98.9991 90.6515 98.9991C61.2113 99.0003 31.7724 99.0003 2.33222 98.9991C0.790211 98.9991 0.00116492 98.1645 0.00116492 96.5264C1.13653e-06 80.6183 0 64.7089 0 48.8007C0 40.4653 0 32.1311 0 23.7957C0 23.5517 0 23.3078 0 23.0651C0.00232756 22.9165 0.0826292 22.586 0.0954308 22.5265ZM65.2124 34.4911C65.0355 34.4477 64.9471 34.4081 64.8586 34.4056C62.2226 34.3474 59.5855 34.288 56.9496 34.2484C56.7308 34.2447 56.4969 34.3412 56.292 34.4428C47.7348 38.6464 39.6162 43.6487 31.9644 49.5139C21.6859 57.3949 12.4222 66.4225 4.43401 76.905C4.21405 77.1935 4.06858 77.6355 4.06741 78.0069C4.04414 83.3088 4.05112 88.612 4.05112 93.9139C4.05112 94.1516 4.05112 94.3893 4.05112 94.6753C4.36883 94.6753 4.5981 94.6753 4.82736 94.6753C8.99719 94.6753 13.167 94.6171 17.3345 94.7125C18.5169 94.7397 19.0255 94.3423 19.5515 93.2279C25.7498 80.0636 33.1619 67.7474 42.3686 56.7028C48.703 49.1041 55.5449 42.0861 63.2223 36.0227C63.8566 35.5225 64.5025 35.0383 65.2124 34.4911ZM78.1443 35.203C77.8941 35.1659 77.7277 35.1287 77.5601 35.1176C75.9925 35.0173 74.4249 34.9083 72.8561 34.8378C72.5675 34.8241 72.2265 34.8922 71.9879 35.0544C70.1084 36.3273 68.1917 37.5506 66.3913 38.9411C57.5501 45.7647 49.84 53.8723 42.8248 62.7439C35.8572 71.556 30.0697 81.2114 24.977 91.3521C24.4417 92.4181 23.9401 93.504 23.3757 94.6778C23.6864 94.6778 23.8912 94.6778 24.0972 94.6778C30.8658 94.6778 37.6343 94.6704 44.4017 94.6927C44.9172 94.6939 45.1349 94.5391 45.3036 94.0241C47.9768 85.8558 51.1225 77.9017 54.8967 70.2349C61.0856 57.6649 68.7934 46.2327 77.7312 35.7206C77.8545 35.5732 77.9709 35.4185 78.1443 35.203ZM88.0062 36.1527C87.2439 36.0611 86.5713 35.9744 85.8974 35.9001C85.2038 35.8233 84.5044 35.7887 83.8154 35.6785C83.4453 35.619 83.2033 35.7132 82.9496 35.9992C77.0038 42.7052 71.6097 49.8792 66.7486 57.5089C60.051 68.021 54.7419 79.2897 50.5709 91.1775C50.1729 92.3129 49.7923 93.4545 49.3757 94.6753C49.6829 94.6753 49.9099 94.6753 50.1368 94.6753C56.05 94.6753 61.9643 94.6753 67.8775 94.6753C68.9446 94.6753 68.9458 94.6753 69.1925 93.556C73.168 75.5033 78.9019 58.0858 85.8963 41.1228C86.5736 39.4859 87.28 37.8626 88.0062 36.1527ZM4.05112 70.4404C16.2161 55.9475 30.2909 44.1241 46.3103 34.8997C46.1148 34.8675 45.9402 34.8613 45.7703 34.8885C43.0878 35.312 40.3739 35.5794 37.7332 36.1998C33.0839 37.2931 28.4707 38.5634 23.8598 39.8313C16.8736 41.7518 10.3553 44.7766 4.4887 49.3047C4.14073 49.5734 4.04414 49.8482 4.0453 50.2754C4.05577 56.7944 4.05228 63.3134 4.05228 69.8312C4.05112 70.0343 4.05112 70.2374 4.05112 70.4404ZM88.9198 44.7865C82.3235 60.9275 76.8653 77.4597 73.1063 94.6345C78.4097 94.6345 83.6537 94.6345 88.9198 94.6345C88.9198 77.9908 88.9198 61.3881 88.9198 44.7865ZM88.9139 31.8401C88.9268 31.6606 88.9395 31.5603 88.9395 31.46C88.9407 25.7235 88.9442 19.9882 88.9268 14.2518C88.9256 14.0029 88.7813 13.6995 88.6125 13.5163C87.1194 11.8955 85.61 10.292 84.0912 8.69851C83.8771 8.4744 83.6083 8.27876 83.3301 8.1599C80.636 7.00096 77.9383 5.85193 75.2314 4.7289C74.9777 4.62365 74.6192 4.62241 74.3667 4.72766C71.6598 5.85193 68.9621 7.00096 66.2703 8.16361C65.9758 8.29115 65.693 8.50288 65.4661 8.74061C63.9881 10.2896 62.5334 11.8645 61.0531 13.4123C60.7691 13.7094 60.6422 14.0004 60.6434 14.4313C60.6574 19.3828 60.6527 24.3355 60.6527 29.287C60.6527 29.5061 60.6527 29.7265 60.6527 30.0188C62.0295 30.0188 63.3352 30.0188 64.6968 30.0188C64.6968 29.7897 64.6968 29.5668 64.6968 29.3439C64.6968 26.1866 64.6957 23.0305 64.6968 19.8731C64.6968 18.0381 65.4161 17.263 67.1198 17.263C72.2393 17.2618 77.3599 17.2618 82.4794 17.263C84.1553 17.263 84.9024 18.048 84.9024 19.8137C84.9047 23.4242 84.9036 27.036 84.9036 30.6465C84.9036 30.8842 84.9036 31.122 84.9036 31.3869C86.278 31.543 87.5663 31.6878 88.9139 31.8401ZM68.7759 30.1983C72.8084 30.4571 76.8013 30.7134 80.8199 30.9722C80.8199 27.8482 80.8199 24.7354 80.8199 21.6053C76.7827 21.6053 72.7991 21.6053 68.7759 21.6053C68.7759 24.4866 68.7759 27.3369 68.7759 30.1983ZM14.1399 29.2907C13.9607 29.3006 13.8618 29.2919 13.7698 29.3142C10.7184 30.0745 7.66931 30.8471 4.61439 31.5925C4.1675 31.7014 4.03948 31.9082 4.04181 32.3862C4.06043 36.1378 4.05112 39.8895 4.05345 43.64C4.05345 43.8369 4.07207 44.0325 4.08487 44.2826C4.21056 44.2294 4.28387 44.2108 4.34323 44.1699C7.36673 42.1121 10.5136 40.3056 13.8408 38.8594C13.9875 38.7962 14.1283 38.5015 14.1295 38.3133C14.1481 35.7577 14.1411 33.2021 14.1399 30.6453C14.1399 30.2169 14.1399 29.7872 14.1399 29.2907ZM18.2225 28.3844C18.2225 31.351 18.2225 34.2075 18.2225 37.069C18.3121 37.0739 18.3738 37.0925 18.4261 37.0764C20.9213 36.3186 23.4129 35.5497 25.9116 34.8056C26.2688 34.6991 26.2875 34.4787 26.2863 34.1691C26.2805 32.0023 26.284 29.8367 26.2805 27.6699C26.2805 27.5127 26.2514 27.3554 26.2246 27.0843C23.5293 27.5226 20.877 27.9535 18.2225 28.3844ZM30.3211 33.4572C30.4538 33.4807 30.4934 33.5005 30.5283 33.4919C33.0455 32.9087 35.5628 32.3292 38.0742 31.7225C38.2116 31.6891 38.385 31.4377 38.3966 31.2743C38.4373 30.7418 38.4117 30.2032 38.4117 29.6659C38.4117 28.4747 38.4117 27.2824 38.4117 26.142C38.3302 26.0826 38.314 26.0603 38.3 26.0615C35.749 26.2435 33.198 26.4218 30.6493 26.6274C30.5318 26.6373 30.3363 26.8775 30.3351 27.0124C30.3153 29.1557 30.3211 31.299 30.3211 33.4572ZM42.4826 30.9499C44.5332 30.7196 46.5105 30.4979 48.4807 30.2775C48.4807 28.7211 48.4807 27.2267 48.4807 25.8003C46.4523 25.8003 44.468 25.8003 42.4826 25.8003C42.4826 27.5733 42.4826 29.2362 42.4826 30.9499ZM56.5667 29.9544C56.5667 28.4797 56.5667 27.1251 56.5667 25.8027C55.2388 25.8027 53.9389 25.8027 52.5994 25.8027C52.5994 27.2019 52.5994 28.5924 52.5994 29.9544C53.9237 29.9544 55.2167 29.9544 56.5667 29.9544Z" fill="#ABC419"/>
</svg>
