<svg width="44" height="44" viewBox="0 0 44 44" fill="none" xmlns="http://www.w3.org/2000/svg">
<path d="M11 17.2092C11 17.1089 11 17.0086 11 16.9084C11.1865 16.5965 11.4968 16.578 11.8081 16.575C12.7316 16.567 13.655 16.565 14.5784 16.56C15.2322 16.5564 15.4698 16.7184 15.729 17.3109C16.303 18.6219 16.9356 19.9038 17.7012 21.1145C17.9428 21.497 18.2316 21.8469 18.6386 22.0705C18.952 22.2424 19.2086 22.1637 19.3615 21.8494C19.4262 21.7155 19.4834 21.5717 19.5079 21.4263C19.5686 21.0668 19.6257 20.7054 19.6523 20.3424C19.7135 19.5047 19.6959 18.67 19.5074 17.8448C19.4097 17.4162 19.163 17.1315 18.7454 16.9961C18.6572 16.9675 18.5669 16.946 18.4767 16.9234C18.2737 16.8728 18.2526 16.8221 18.3885 16.6582C18.585 16.4216 18.8256 16.2336 19.1334 16.1835C19.5561 16.1148 19.9822 16.0541 20.4088 16.0301C21.2741 15.9809 22.1399 15.9779 22.9981 16.1303C23.5636 16.2311 23.7752 16.4411 23.8769 17.0016C23.891 17.0788 23.897 17.1585 23.896 17.2367C23.89 17.7737 23.8795 18.3101 23.8729 18.847C23.8639 19.5985 23.8378 20.3504 23.8614 21.1009C23.8699 21.3676 23.9607 21.6524 24.088 21.889C24.2389 22.1692 24.5242 22.1983 24.7588 21.9833C25.032 21.7331 25.3082 21.4754 25.5278 21.1801C26.4462 19.9459 27.1671 18.5993 27.7336 17.1696C27.9301 16.6738 28.059 16.595 28.5869 16.6016C28.644 16.6021 28.7012 16.6016 28.7588 16.6011C29.8828 16.588 31.0062 16.5675 32.1302 16.566C32.4781 16.5655 32.8431 16.5815 33 16.9931C33 17.0934 33 17.1936 33 17.2939C32.8611 17.6202 32.7458 17.9586 32.5799 18.2705C32.0264 19.3097 31.2815 20.2191 30.5806 21.1581C30.2177 21.6444 29.8647 22.1392 29.5349 22.648C29.3404 22.9483 29.3644 23.2837 29.5765 23.5754C29.7224 23.7765 29.8968 23.959 30.0723 24.1364C30.6804 24.7515 31.3176 25.3396 31.8986 25.9788C32.3839 26.5132 32.8847 27.0581 33 27.8221C33 27.8367 33 27.8507 33 27.8653C32.9303 28.2473 32.6646 28.4097 32.3132 28.4608C32.1227 28.4884 31.9282 28.4939 31.7352 28.4979C30.8619 28.514 29.9881 28.511 29.1158 28.5461C28.6997 28.5626 28.3242 28.4683 27.9582 28.2939C27.4418 28.0477 27.0633 27.6357 26.6808 27.2281C26.2647 26.7854 25.8682 26.3212 25.424 25.9086C24.9132 25.4338 24.5066 25.5206 24.1617 26.1272C24.099 26.238 24.0384 26.3593 24.0183 26.4826C23.9547 26.8691 23.894 27.2577 23.8634 27.6482C23.8173 28.2382 23.5812 28.4809 22.9836 28.4904C22.5038 28.4979 22.0241 28.508 21.5448 28.4919C21.1959 28.4804 20.8414 28.4608 20.5015 28.3886C18.6747 28.0001 17.1878 27.0125 15.9882 25.6264C14.5599 23.976 13.4028 22.1306 12.4202 20.182C11.9264 19.2019 11.4722 18.2013 11 17.2092Z" fill="#999999"/>
<circle cx="22" cy="22" r="21.5" stroke="#999999"/>
</svg>
