<svg width="44" height="44" viewBox="0 0 44 44" fill="none" xmlns="http://www.w3.org/2000/svg">
<circle cx="22" cy="22" r="21.5" stroke="#999999"/>
<path d="M22.1145 27.3364C21.3897 28.0801 20.6695 28.8199 19.9492 29.5597C19.7316 29.783 19.4967 29.9626 19.1379 29.9296C19.1725 29.3675 19.2044 28.8131 19.2399 28.2587C19.2973 27.3752 19.3692 26.4927 19.4102 25.6083C19.4229 25.3325 19.5031 25.1403 19.697 24.9549C22.1774 22.5782 24.6495 20.1927 27.1244 17.8093C27.2428 17.6957 27.3703 17.5898 27.4741 17.4627C27.5487 17.3714 27.5906 17.2491 27.6471 17.1403C27.5105 17.1248 27.3621 17.0665 27.2401 17.1044C27.0698 17.1568 26.915 17.2743 26.762 17.3772C23.6142 19.4889 20.4664 21.5995 17.3241 23.7199C17.0928 23.8762 16.8961 23.918 16.6302 23.8257C15.3336 23.3782 14.0297 22.9549 12.7294 22.516C12.4153 22.4102 12.0392 22.3063 12.0028 21.8966C11.9646 21.4636 12.326 21.2714 12.6393 21.1374C14.0634 20.5306 15.4957 19.9452 16.9262 19.3568C21.0911 17.6423 25.2569 15.9297 29.4218 14.2161C29.8406 14.0442 30.2695 13.8355 30.6747 14.2064C31.0899 14.585 31.0234 15.1064 30.9296 15.5967C30.6501 17.0695 30.3505 18.5374 30.0573 20.0073C29.4026 23.2908 28.747 26.5733 28.0923 29.8568C27.852 31.0616 27.2118 31.3247 26.2822 30.5956C24.9719 29.5675 23.6625 28.5374 22.3531 27.5092C22.2812 27.4529 22.2047 27.4015 22.1145 27.3364Z" fill="#999999"/>
</svg>
