<svg width="167" height="65" viewBox="0 0 167 65" fill="none" xmlns="http://www.w3.org/2000/svg">
<path d="M35.349 61.4604V41.0063L71.1799 14.8363L90.9595 14.8243L71.1799 0.381104L23.6765 35.0797V61.4604H35.349Z" fill="#243906"/>
<path d="M41.3178 1.94116L19.7735 17.6733L9.8958 10.4577L0 17.6853L19.7735 32.1345L51.2136 9.16877L41.3178 1.94116Z" fill="#708C08"/>
<path d="M54.6046 37.9893H55.8755L58.4293 44.1448L61.0974 37.9893H62.3683L63.9463 47.5718H62.0852L61.236 41.7717L58.6521 47.6983H58.1462L55.6767 41.7717L54.7191 47.5718H52.858L54.6046 37.9893Z" fill="#0C1608"/>
<path d="M67.7529 43.2711L64.5186 38.1636H66.6929L68.7105 41.4401L70.7283 38.1636H72.9026L69.5839 43.2711V47.5775H67.7469V43.2711H67.7529Z" fill="#0C1608"/>
<path d="M82.8164 45.602H79.0159L78.1847 47.5775H76.1971L80.2747 37.9648H81.66L85.6292 47.5775H83.6536L82.8164 45.602ZM82.2804 44.1023L80.9553 40.7173L79.6001 44.1023H82.2804Z" fill="#0C1608"/>
<path d="M93.5434 47.2342C92.9772 47.5294 92.2303 47.7884 91.2125 47.7884C89.5622 47.7884 88.5563 47.2222 87.7673 46.4753C86.6831 45.4273 86.2555 44.2589 86.2555 42.8736C86.2555 41.1631 86.9602 39.9404 87.7673 39.1875C88.7129 38.2961 89.8874 37.9468 91.2245 37.9468C91.887 37.9468 92.676 38.0612 93.5373 38.525V40.6692C92.676 39.6814 91.6039 39.6091 91.2666 39.6091C89.3754 39.6091 88.1467 41.163 88.1467 42.8977C88.1467 44.9877 89.7549 46.114 91.3389 46.114C92.2123 46.114 92.9892 45.7345 93.5434 45.084V47.2342Z" fill="#0C1608"/>
<path d="M102.072 47.2342C101.506 47.5294 100.759 47.7884 99.741 47.7884C98.0907 47.7884 97.0849 47.2222 96.2958 46.4753C95.2117 45.4273 94.7841 44.2589 94.7841 42.8736C94.7841 41.1631 95.4888 39.9404 96.2958 39.1875C97.2415 38.2961 98.4159 37.9468 99.753 37.9468C100.416 37.9468 101.205 38.0612 102.066 38.525V40.6692C101.205 39.6814 100.132 39.6091 99.7952 39.6091C97.904 39.6091 96.6753 41.163 96.6753 42.8977C96.6753 44.9877 98.2834 46.114 99.8675 46.114C100.741 46.114 101.518 45.7345 102.072 45.084V47.2342Z" fill="#0C1608"/>
<path d="M113.365 42.8736C113.365 45.7405 111.305 47.7884 108.342 47.7884C105.379 47.7884 103.319 45.7405 103.319 42.8736C103.319 40.0066 105.379 37.9468 108.342 37.9468C111.305 37.9468 113.365 40.0127 113.365 42.8736ZM111.474 42.8736C111.474 40.9643 110.173 39.6152 108.342 39.6152C106.511 39.6152 105.21 40.9703 105.21 42.8736C105.21 44.7769 106.511 46.12 108.342 46.12C110.173 46.12 111.474 44.7829 111.474 42.8736Z" fill="#0C1608"/>
<path d="M116.895 38.1636V44.0782C116.895 44.7949 117.135 45.2346 117.346 45.4755C117.611 45.8008 118.105 46.126 118.84 46.126C119.575 46.126 120.069 45.8008 120.34 45.4755C120.55 45.2346 120.791 44.8009 120.791 44.0782V38.1636H122.628V43.9216C122.628 44.807 122.49 45.7104 121.924 46.4332C121.249 47.3246 120.063 47.7884 118.846 47.7884C117.635 47.7884 116.449 47.3246 115.768 46.4332C115.202 45.7104 115.064 44.807 115.064 43.9216V38.1636H116.895Z" fill="#0C1608"/>
<path d="M124.773 47.5776V37.9529H126.044L131.777 44.4999V38.1637H133.614V47.7644H132.344L126.616 41.2173V47.5837H124.773V47.5776Z" fill="#0C1608"/>
<path d="M138.722 39.7416V47.5775H136.885V39.7416H134.765V38.1636H140.836V39.7416H138.722Z" fill="#0C1608"/>
<path d="M147.022 45.602H143.227L142.396 47.5775H140.408L144.486 37.9648H145.871L149.84 47.5775H147.865L147.022 45.602ZM146.486 44.1023L145.161 40.7173L143.805 44.1023H146.486Z" fill="#0C1608"/>
<path d="M150.937 47.5776V37.9529H152.207L157.941 44.4999V38.1637H159.778V47.7644H158.508L152.78 41.2173V47.5837H150.937V47.5776Z" fill="#0C1608"/>
<path d="M164.886 39.7416V47.5775H163.049V39.7416H160.929V38.1636H167V39.7416H164.886Z" fill="#0C1608"/>
<path d="M53.2795 61.4607V54.0464H56.8993V54.4921H53.7794V57.2386H55.0864C56.815 57.2386 57.6763 57.9132 57.6763 59.2684C57.6763 59.8827 57.4775 60.4007 57.074 60.8223C56.6705 61.2439 56.0621 61.4547 55.243 61.4547H53.2795V61.4607ZM53.7734 57.6843V61.015H55.0382C55.7971 61.015 56.3452 60.8524 56.6825 60.5272C56.9957 60.232 57.1583 59.8104 57.1583 59.2744C57.1583 58.6299 56.8993 58.1722 56.3813 57.9072C56.0802 57.7566 55.6044 57.6843 54.9479 57.6843H53.7734Z" fill="#0C1608"/>
<path d="M59.4772 64.0209L60.5614 61.5455L58.375 56.9319H58.893L60.8203 60.9673L62.5007 56.9319H63.0188L59.9952 64.0209H59.4772Z" fill="#0C1608"/>
<path d="M63.1994 61.4611L65.0605 59.082L63.356 56.9258H63.9101L65.3616 58.7929L66.7951 56.9258H67.3493L65.6809 59.082L67.5299 61.4611H66.9758L65.3616 59.3711L63.7475 61.4611H63.1994Z" fill="#0C1608"/>
<path d="M68.4274 61.4611V56.9258H70.9089V57.3474H68.8792V61.4611H68.4274Z" fill="#0C1608"/>
<path d="M75.4383 57.7146V56.9256H75.89V61.4609H75.4383V60.6478C75.0227 61.2682 74.4264 61.5814 73.6434 61.5814C73.017 61.5814 72.487 61.3646 72.0533 60.9249C71.6197 60.4913 71.4028 59.913 71.4028 59.1903C71.4028 58.4856 71.6076 57.9134 72.0232 57.4797C72.4388 57.04 72.9748 56.8232 73.6494 56.8232C74.4143 56.8293 75.0106 57.1244 75.4383 57.7146ZM73.6735 57.2509C73.1857 57.2509 72.764 57.4195 72.4087 57.7688C72.0533 58.1121 71.8786 58.5759 71.8786 59.1662C71.8786 59.7082 72.0413 60.178 72.3605 60.5695C72.6857 60.9671 73.1254 61.1658 73.6795 61.1658C74.2276 61.1658 74.6613 60.9731 74.9805 60.5816C75.2997 60.1901 75.4623 59.7203 75.4623 59.1662C75.4623 58.5518 75.2756 58.082 74.9082 57.7508C74.5408 57.4135 74.1313 57.2509 73.6735 57.2509Z" fill="#0C1608"/>
<path d="M80.7385 56.9257V61.461H80.2867V57.3473H78.1666V59.9673C78.1666 60.4612 78.0763 60.8286 77.8956 61.0695C77.6908 61.3466 77.4017 61.4791 77.0162 61.4791C76.9681 61.4791 76.8958 61.4731 76.7934 61.455V61.0334C76.8657 61.0454 76.9259 61.0575 76.962 61.0575C77.215 61.0575 77.4198 60.9551 77.5583 60.7563C77.6607 60.5937 77.7149 60.3287 77.7149 59.9673V56.9197H80.7385V56.9257Z" fill="#0C1608"/>
<path d="M83.244 61.4611V57.3474H81.6419V56.9258H85.2918V57.3474H83.6897V61.4611H83.244Z" fill="#0C1608"/>
<path d="M90.0741 59.2504H86.1411C86.1411 59.8106 86.3157 60.2743 86.6771 60.6297C87.0325 60.9851 87.4661 61.1597 87.966 61.1597C88.3274 61.1597 88.6467 61.0634 88.9237 60.8767C89.2008 60.6899 89.4176 60.437 89.5681 60.1298L89.9536 60.3527C89.779 60.6779 89.532 60.967 89.2008 61.2139C88.8695 61.4609 88.4479 61.5874 87.942 61.5874C87.2433 61.5874 86.6892 61.3645 86.2856 60.9188C85.8821 60.4731 85.6773 59.907 85.6773 59.2264C85.6773 58.4795 85.8941 57.8892 86.3398 57.4676C86.7795 57.046 87.3035 56.8352 87.9118 56.8352C88.5322 56.8352 89.0562 57.0581 89.4658 57.5098C89.8633 57.9555 90.0741 58.5397 90.0741 59.2504ZM86.1712 58.8288H89.5983C89.5381 58.3711 89.3513 57.9916 89.0381 57.6965C88.7249 57.4014 88.3455 57.2508 87.8938 57.2508C87.436 57.2508 87.0506 57.4014 86.7313 57.7025C86.4181 57.9976 86.2314 58.3771 86.1712 58.8288Z" fill="#0C1608"/>
<path d="M91.8569 60.6479V64.0148H91.4052V56.9257H91.8569V57.7147C92.2966 57.1245 92.8989 56.8293 93.6578 56.8293C94.3323 56.8293 94.8744 57.0462 95.2779 57.4919C95.6815 57.9316 95.8863 58.4917 95.8863 59.1663C95.8863 59.8529 95.6815 60.4311 95.2719 60.8949C94.8623 61.3586 94.3142 61.5875 93.6336 61.5875C93.2903 61.5875 92.9771 61.5213 92.7001 61.3827C92.423 61.2442 92.2303 61.1178 92.1279 61.0033C92.0195 60.8829 91.9292 60.7684 91.8569 60.6479ZM92.3026 60.5877C92.6158 60.9672 93.0555 61.1599 93.6216 61.1599C94.1878 61.1599 94.6275 60.9732 94.9407 60.5937C95.2539 60.2143 95.4165 59.7385 95.4165 59.1602C95.4165 58.5579 95.2418 58.0942 94.8985 57.7509C94.5552 57.4136 94.1335 57.2449 93.6336 57.2449C93.1458 57.2449 92.7242 57.4136 92.3688 57.7449C92.0135 58.0761 91.8328 58.5399 91.8328 59.1362C91.8328 59.7264 91.9894 60.2083 92.3026 60.5877Z" fill="#0C1608"/>
<path d="M100.909 57.4075V57.9978C100.476 57.5039 99.9458 57.2509 99.3194 57.2509C98.7653 57.2509 98.3076 57.4376 97.9462 57.8111C97.5848 58.1845 97.4041 58.6543 97.4041 59.2205C97.4041 59.8288 97.5968 60.3046 97.9763 60.6479C98.3618 60.9912 98.8014 61.1659 99.2953 61.1659C99.9036 61.1659 100.458 60.8949 100.964 60.3528V60.9551C100.482 61.3767 99.9217 61.5875 99.2833 61.5875C98.5906 61.5875 98.0245 61.3647 97.5848 60.919C97.1451 60.4733 96.9283 59.9071 96.9283 59.2325C96.9283 58.5399 97.1451 57.9737 97.5848 57.5159C98.0184 57.0582 98.5966 56.8353 99.3194 56.8353C99.9097 56.8293 100.44 57.0221 100.909 57.4075Z" fill="#0C1608"/>
<path d="M102.204 56.9258H102.656V59.082L104.981 56.9258H105.589L103.246 59.082L105.77 61.4611H105.114L102.903 59.3832L102.656 59.618V61.4611H102.204V56.9258Z" fill="#0C1608"/>
<path d="M110.173 57.7146V56.9256H110.625V61.4609H110.173V60.6478C109.757 61.2682 109.161 61.5814 108.378 61.5814C107.758 61.5814 107.228 61.3646 106.788 60.9249C106.354 60.4913 106.131 59.913 106.131 59.1903C106.131 58.4856 106.336 57.9134 106.752 57.4797C107.167 57.04 107.709 56.8232 108.372 56.8232C109.149 56.8293 109.745 57.1244 110.173 57.7146ZM108.402 57.2509C107.914 57.2509 107.493 57.4195 107.137 57.7688C106.782 58.1121 106.607 58.5759 106.607 59.1662C106.607 59.7082 106.77 60.178 107.089 60.5695C107.414 60.9671 107.854 61.1658 108.408 61.1658C108.956 61.1658 109.39 60.9731 109.709 60.5816C110.028 60.1901 110.191 59.7203 110.191 59.1662C110.191 58.5518 110.004 58.082 109.637 57.7508C109.275 57.4135 108.86 57.2509 108.402 57.2509Z" fill="#0C1608"/>
<path d="M111.751 61.4612L113.215 59.4856C112.859 59.4676 112.558 59.3592 112.311 59.1544C112.052 58.9315 111.926 58.6303 111.926 58.2569C111.926 57.8172 112.064 57.486 112.341 57.2571C112.588 57.0403 112.956 56.9319 113.437 56.9319H114.973V61.4672H114.522V59.5097H113.732L112.287 61.4672H111.751V61.4612ZM114.522 59.0821V57.3475H113.437C113.124 57.3475 112.877 57.4137 112.703 57.5462C112.498 57.7149 112.395 57.9437 112.395 58.2389C112.395 58.5219 112.492 58.7328 112.691 58.8833C112.871 59.0158 113.118 59.0821 113.431 59.0821H114.522Z" fill="#0C1608"/>
<path d="M119.225 61.4611V56.9258H122.653V61.4611H122.201V57.3474H119.677V61.4611H119.225Z" fill="#0C1608"/>
<path d="M124.676 57.5099C125.14 57.0522 125.712 56.8293 126.393 56.8293C127.079 56.8293 127.652 57.0582 128.109 57.5099C128.573 57.9677 128.802 58.5339 128.802 59.2024C128.802 59.877 128.567 60.4432 128.109 60.8949C127.646 61.3526 127.073 61.5815 126.393 61.5815C125.706 61.5815 125.134 61.3526 124.676 60.8949C124.213 60.4371 123.984 59.877 123.984 59.2024C123.984 58.5339 124.213 57.9677 124.676 57.5099ZM125.014 60.5937C125.387 60.9732 125.845 61.1599 126.393 61.1599C126.941 61.1599 127.405 60.9732 127.772 60.5937C128.146 60.2143 128.332 59.7505 128.332 59.2024C128.332 58.6543 128.146 58.1906 127.772 57.8171C127.399 57.4377 126.941 57.251 126.393 57.251C125.845 57.251 125.381 57.4377 125.014 57.8171C124.64 58.1966 124.453 58.6543 124.453 59.2024C124.453 59.7505 124.64 60.2203 125.014 60.5937Z" fill="#0C1608"/>
<path d="M130.452 56.9258H133.47V61.0395H134.144V62.6838H133.717V61.4611H129.838V62.6838H129.41V61.0395C129.784 61.0154 130.067 60.8167 130.254 60.4372C130.38 60.1782 130.446 59.7686 130.446 59.2145V56.9258H130.452ZM133.024 61.0395V57.3474H130.904V59.347C130.904 60.1481 130.711 60.7082 130.32 61.0395H133.024Z" fill="#0C1608"/>
<path d="M135.524 56.9258H138.541V61.0395H139.216V62.6838H138.788V61.4611H134.909V62.6838H134.482V61.0395C134.855 61.0154 135.138 60.8167 135.325 60.4372C135.451 60.1782 135.518 59.7686 135.518 59.2145V56.9258H135.524ZM138.096 61.0395V57.3474H135.975V59.347C135.975 60.1481 135.783 60.7082 135.391 61.0395H138.096Z" fill="#0C1608"/>
<path d="M144.281 59.2504H140.348C140.348 59.8106 140.523 60.2743 140.884 60.6297C141.24 60.9851 141.673 61.1597 142.173 61.1597C142.534 61.1597 142.854 61.0634 143.131 60.8767C143.408 60.6899 143.625 60.437 143.775 60.1298L144.161 60.3527C143.986 60.6779 143.739 60.967 143.408 61.2139C143.077 61.4609 142.655 61.5874 142.149 61.5874C141.45 61.5874 140.896 61.3645 140.493 60.9188C140.089 60.4731 139.884 59.907 139.884 59.2264C139.884 58.4795 140.101 57.8892 140.541 57.4676C140.981 57.046 141.505 56.8352 142.113 56.8352C142.733 56.8352 143.257 57.0581 143.667 57.5098C144.076 57.9555 144.281 58.5397 144.281 59.2504ZM140.384 58.8288H143.811C143.751 58.3711 143.564 57.9916 143.251 57.6965C142.938 57.4014 142.559 57.2508 142.107 57.2508C141.649 57.2508 141.264 57.4014 140.944 57.7025C140.631 57.9976 140.445 58.3771 140.384 58.8288Z" fill="#0C1608"/>
<path d="M146.064 60.6479V64.0148H145.612V56.9257H146.064V57.7147C146.504 57.1245 147.106 56.8293 147.865 56.8293C148.539 56.8293 149.082 57.0462 149.485 57.4919C149.889 57.9316 150.093 58.4917 150.093 59.1663C150.093 59.8529 149.889 60.4311 149.479 60.8949C149.069 61.3586 148.521 61.5875 147.841 61.5875C147.497 61.5875 147.184 61.5213 146.907 61.3827C146.63 61.2442 146.437 61.1178 146.335 61.0033C146.227 60.8829 146.136 60.7684 146.064 60.6479ZM146.516 60.5877C146.829 60.9672 147.269 61.1599 147.835 61.1599C148.401 61.1599 148.841 60.9732 149.154 60.5937C149.467 60.2143 149.63 59.7385 149.63 59.1602C149.63 58.5579 149.455 58.0942 149.112 57.7509C148.768 57.4136 148.347 57.2449 147.847 57.2449C147.359 57.2449 146.937 57.4136 146.582 57.7449C146.227 58.0761 146.046 58.5399 146.046 59.1362C146.04 59.7264 146.197 60.2083 146.516 60.5877Z" fill="#0C1608"/>
<path d="M153.551 56.9258H154.002V59.082L156.074 56.9258H156.658L154.514 59.1061L156.839 61.4611H156.231L154.225 59.3952L154.002 59.618V61.4611H153.551V59.618L153.328 59.3952L151.322 61.4611H150.714L153.039 59.1061L150.894 56.9258H151.479L153.551 59.082V56.9258Z" fill="#0C1608"/>
<path d="M157.743 56.9258H158.194V59.082L160.519 56.9258H161.128L158.785 59.082L161.308 61.4611H160.652L158.441 59.3832L158.194 59.618V61.4611H157.743V56.9258Z" fill="#0C1608"/>
<path d="M165.711 57.7146V56.9256H166.163V61.4609H165.711V60.6478C165.296 61.2682 164.699 61.5814 163.916 61.5814C163.296 61.5814 162.766 61.3646 162.326 60.9249C161.893 60.4913 161.67 59.913 161.67 59.1903C161.67 58.4856 161.874 57.9134 162.29 57.4797C162.706 57.04 163.248 56.8232 163.91 56.8232C164.687 56.8293 165.283 57.1244 165.711 57.7146ZM163.94 57.2509C163.452 57.2509 163.031 57.4195 162.675 57.7688C162.32 58.1121 162.145 58.5759 162.145 59.1662C162.145 59.7082 162.308 60.178 162.627 60.5695C162.953 60.9671 163.392 61.1658 163.946 61.1658C164.494 61.1658 164.928 60.9731 165.247 60.5816C165.567 60.1901 165.729 59.7203 165.729 59.1662C165.729 58.5518 165.542 58.082 165.175 57.7508C164.814 57.4135 164.398 57.2509 163.94 57.2509Z" fill="#0C1608"/>
</svg>
