<svg width="23" height="23" viewBox="0 0 23 23" fill="none" xmlns="http://www.w3.org/2000/svg">
<path d="M17.2517 22.4298C14.148 21.6305 11.4904 19.9675 8.9589 18.0856C6.45816 16.2268 4.4501 13.9055 2.80415 11.267C1.8303 9.70502 0.963984 8.08979 0.317675 6.3599C-0.0992989 5.2445 -0.105881 4.13787 0.298473 3.02576C0.450449 2.60714 0.701732 2.24887 1.03696 1.95644C1.63059 1.43797 2.22588 0.921687 2.82884 0.414186C3.5794 -0.217309 4.38536 -0.120198 4.98888 0.661078C5.8722 1.80446 6.75827 2.94566 7.63885 4.09124C7.90988 4.44402 8.20835 4.78363 8.42287 5.16933C8.83765 5.91495 8.79266 6.67921 8.37624 7.42154C8.24072 7.66294 8.09752 7.90051 7.96311 8.14301C7.65037 8.70538 7.68658 9.24415 8.07887 9.75659C9.40495 11.487 10.9373 13.0117 12.6661 14.3395C13.1769 14.7317 13.7157 14.774 14.2792 14.4613C14.5403 14.3159 14.7938 14.1562 15.0582 14.0174C15.9388 13.5538 16.7953 13.6125 17.5837 14.2105C19.014 15.2952 20.4251 16.4046 21.8478 17.4991C22.1512 17.7329 22.3158 18.0456 22.42 18.4011C22.42 18.5328 22.42 18.6639 22.42 18.7956C22.3103 19.0299 22.2406 19.2971 22.0826 19.4929C21.5663 20.1343 21.0226 20.7537 20.4794 21.3731C20.0844 21.8241 19.5851 22.1177 19.0019 22.2554C18.6848 22.33 18.36 22.3739 18.0385 22.432C17.7779 22.4298 17.5145 22.4298 17.2517 22.4298Z" fill="#243906"/>
</svg>
