<svg width="37" height="41" viewBox="0 0 37 41" fill="none" xmlns="http://www.w3.org/2000/svg">
<path d="M25.8853 0.000793934C26.7461 0.908079 27.6013 1.82097 28.4686 2.72185C31.148 5.50536 33.8338 8.28247 36.5052 11.074C36.6309 11.2053 36.6894 11.452 36.6894 11.645C36.699 17.8086 36.6974 23.9722 36.6974 30.135C36.6974 32.8032 36.6974 35.4714 36.6974 38.1396C36.6974 38.2837 36.6974 38.4271 36.6974 38.5928C26.7621 38.5928 16.8653 38.5928 6.93556 38.5928C6.92195 38.5 6.90834 38.4055 6.88032 38.2157C6.00106 39.1814 5.17225 40.0911 4.34424 41C4.31781 41 4.29059 41 4.26416 41C3.02775 39.75 1.79215 38.4991 0.552541 37.2523C0.384377 37.0834 0.190586 36.9384 0 36.7743C2.02918 34.8748 3.96627 32.9914 5.98985 31.2048C6.71055 30.5682 6.94918 29.9292 6.93637 28.9907C6.88351 25.0644 6.91635 21.1374 6.91554 17.2104C6.91394 12.9775 6.90914 8.74533 6.90674 4.5124C6.90594 3.00853 6.90674 1.50386 6.90674 -7.62939e-06C13.2321 0.000793152 19.5591 0.000793934 25.8853 0.000793934ZM23.9602 12.682C23.9602 9.45482 23.9602 6.29974 23.9602 3.14866C19.3052 3.14866 14.6951 3.14866 10.0826 3.14866C10.0826 11.2061 10.0826 19.238 10.0826 27.3387C12.4361 25.1365 14.7368 22.9848 17.0951 20.7787C16.3712 20.0668 15.6881 19.3965 15.0082 18.7287C16.9565 16.7908 18.9096 14.8489 20.8475 12.9214C23.2779 15.3486 25.7259 17.7934 28.1771 20.2413C26.2304 22.1752 24.2757 24.1163 22.2913 26.087C21.6155 25.3928 20.9316 24.6905 20.2229 23.9626C19.6143 24.6192 19.049 25.2342 18.478 25.8444C15.757 28.7536 13.0383 31.6653 10.3077 34.5657C10.0442 34.8452 9.99295 35.1175 10.089 35.4506C17.9135 35.4506 25.7147 35.4506 33.5407 35.4506C33.5407 27.86 33.5407 20.2934 33.5407 12.6812C30.356 12.682 27.1929 12.682 23.9602 12.682ZM26.3833 5.08495C26.3833 6.88991 26.3833 8.59798 26.3833 10.3117C28.0594 10.3117 29.7058 10.3117 31.4194 10.3117C29.7306 8.55874 28.0834 6.84907 26.3833 5.08495Z" fill="#243906"/>
<path d="M29.2854 20.4936C29.721 20.5512 30.0397 20.7554 30.143 21.0838C30.2271 21.3512 30.1182 21.6867 30.0613 21.9854C30.0413 22.0887 29.9284 22.1816 29.8443 22.2657C28.0169 24.0963 26.1815 25.9205 24.3614 27.7583C23.7135 28.4125 22.9264 28.081 22.7238 27.4732C22.5868 27.0648 22.7422 26.7349 23.0145 26.4602C24.8667 24.5968 26.7229 22.7374 28.5919 20.8908C28.7753 20.7098 29.0523 20.6241 29.2854 20.4936Z" fill="#243906"/>
<path d="M13.8687 18.4308C13.1336 18.3427 12.7028 17.626 13.0271 17.0134C13.112 16.8525 13.2433 16.7099 13.3739 16.5794C14.8121 15.1364 16.2543 13.6974 17.6949 12.2576C18.0512 11.9012 18.4028 11.5393 18.7631 11.1861C19.1667 10.7897 19.6111 10.6936 19.9867 10.9091C20.5737 11.2462 20.6409 11.9333 20.1292 12.4474C18.868 13.7134 17.6028 14.9762 16.3391 16.2399C15.7546 16.8244 15.1796 17.4194 14.5774 17.9856C14.3772 18.1721 14.1066 18.2842 13.8687 18.4308Z" fill="#243906"/>
</svg>
