<svg width="35" height="41" viewBox="0 0 35 41" fill="none" xmlns="http://www.w3.org/2000/svg">
<path d="M31.6888 41C21.8487 41 12.0086 41 2.16849 41C2.10335 40.9836 2.03865 40.9631 1.9726 40.9512C0.837796 40.7544 0.0109541 39.8283 0.00867627 38.7226C0.00184286 34.967 0.000934413 31.2114 2.32919e-05 27.4562C-0.000432269 25.4075 0.0059458 23.3584 0.0059458 21.3097C0.0059458 19.2611 2.32919e-05 17.212 2.32919e-05 15.1633C2.32919e-05 13.1147 0.00548513 11.0656 0.00639625 9.0169C0.00776293 6.77099 0.0032091 4.52462 0.00822027 2.27871C0.0104981 1.23547 0.811831 0.279706 1.83821 0.0756152C1.99264 0.0450927 2.14936 0.0250482 2.3047 -7.62939e-06C12.1598 -7.62939e-06 22.0154 -7.62939e-06 31.8706 -7.62939e-06C31.9207 0.0145703 31.9699 0.0337037 32.0209 0.0432705C33.2218 0.267406 34.0012 1.20632 34.0008 2.42995C33.9999 4.88634 33.9949 7.34317 33.9985 9.79956C34.0053 14.0855 34.0231 18.3714 34.0263 22.6573C34.0286 25.859 34.0154 29.0607 34.0094 32.2628C34.0053 34.4021 34.0035 36.5419 33.9962 38.6812C33.9926 39.7422 33.1858 40.7244 32.1558 40.9321C32.0018 40.9626 31.8446 40.9777 31.6888 41ZM32.4819 20.4355C32.4819 18.8798 32.481 17.3236 32.4819 15.7679C32.4829 14.1738 32.487 12.5803 32.487 10.9863C32.487 9.39229 32.4833 7.79873 32.4819 6.20473C32.481 4.96014 32.4874 3.71509 32.4778 2.4705C32.4728 1.82269 32.1471 1.51473 31.4988 1.51473C26.9387 1.51382 22.3785 1.51428 17.8184 1.51428C12.6965 1.51428 7.57463 1.51428 2.45276 1.51473C2.37714 1.51473 2.30015 1.51564 2.22635 1.52885C1.77079 1.61085 1.51112 1.96665 1.50155 2.54156C1.4938 3.0117 1.50428 3.4823 1.50474 3.95244C1.50792 7.90534 1.51157 11.8578 1.51294 15.8107C1.51567 23.3557 1.51704 30.9007 1.51977 38.4457C1.52023 39.1814 1.82545 39.4853 2.55663 39.4853C12.2136 39.4853 21.8701 39.4853 31.5271 39.4843C31.6173 39.4843 31.7102 39.4816 31.7977 39.4607C32.2487 39.3541 32.4942 39.0001 32.4961 38.4457C32.4993 37.535 32.4979 36.6243 32.497 35.7132C32.4947 33.9219 32.4911 32.1307 32.4883 30.3394C32.4856 28.6771 32.4829 27.0152 32.4815 25.3529C32.481 23.7142 32.4815 22.0746 32.4819 20.4355Z" fill="#243906"/>
<path d="M21.6487 36.5856C21.8587 36.1428 22.0687 35.6986 22.2797 35.2544C22.9853 33.7693 23.6955 32.2864 24.3903 30.7963C24.4664 30.6332 24.4782 30.4287 24.4787 30.2433C24.4841 28.2474 24.4809 26.2516 24.48 24.2554C24.48 24.1802 24.48 24.1055 24.48 24.0331C26.0312 23.829 28.8889 24.7897 30.3085 27.4452C31.7881 30.2136 31.2014 33.5392 28.8671 35.6171C26.5979 37.637 23.445 37.6306 21.6487 36.5856Z" fill="#243906"/>
<path d="M16.8954 30.9549C19.0771 30.9549 21.2437 30.9549 23.4486 30.9549C22.5006 32.9375 21.5626 34.8982 20.6255 36.8576C18.5933 36.0727 16.741 33.4368 16.8954 30.9549Z" fill="#243906"/>
<path d="M9.57455 23.2723C11.1681 23.2723 12.7617 23.2691 14.3552 23.2741C14.9483 23.2759 15.3679 23.6668 15.3798 24.2057C15.3921 24.7688 15.0057 25.1834 14.3962 25.2052C13.7065 25.2298 13.0154 25.218 12.3248 25.2194C10.6934 25.2225 9.0625 25.2276 7.43114 25.2248C6.52093 25.2235 5.61026 25.2253 4.70096 25.1929C4.10964 25.172 3.69053 24.7251 3.71604 24.213C3.74428 23.6582 4.19028 23.2714 4.79344 23.2723C6.38745 23.2732 7.981 23.2723 9.57455 23.2723Z" fill="#243906"/>
<path d="M9.56179 31.2328C7.96869 31.2328 6.37606 31.2365 4.78296 31.231C4.04951 31.2287 3.60716 30.7044 3.75795 30.037C3.85271 29.6169 4.25861 29.3058 4.71143 29.3058C7.90537 29.3072 11.0993 29.3085 14.2932 29.3103C14.8527 29.3108 15.1975 29.5354 15.3296 29.9814C15.5223 30.631 15.0855 31.2246 14.4071 31.2314C14.0354 31.2351 13.6641 31.2305 13.2924 31.2305C12.0491 31.2301 10.8055 31.2305 9.56224 31.2305C9.56179 31.231 9.56179 31.2319 9.56179 31.2328Z" fill="#243906"/>
<path d="M24.7871 18.652C23.2714 18.652 21.7558 18.6525 20.2406 18.6516C20.1194 18.6516 19.9973 18.6511 19.877 18.6406C19.3645 18.5955 18.996 18.1851 18.9905 17.6575C18.9855 17.1778 19.3673 16.7428 19.8688 16.7245C20.6793 16.6954 21.4916 16.7004 22.3029 16.699C24.0618 16.6954 25.8203 16.6963 27.5792 16.6958C28.2466 16.6958 28.9145 16.6917 29.5819 16.6999C30.1755 16.7072 30.5996 17.0689 30.6415 17.5856C30.6889 18.1709 30.2652 18.6361 29.6547 18.6493C29.1172 18.6611 28.5787 18.6543 28.0407 18.6543C26.9565 18.6548 25.8718 18.6543 24.7875 18.6543C24.7871 18.6538 24.7871 18.6529 24.7871 18.652Z" fill="#243906"/>
<path d="M9.55084 37.2685C7.94134 37.2685 6.33185 37.2662 4.72235 37.2699C4.15791 37.2712 3.72968 36.8694 3.72194 36.315C3.7142 35.7697 4.12375 35.3547 4.68636 35.3542C7.91993 35.351 11.1535 35.3501 14.3871 35.3524C14.9479 35.3529 15.3305 35.6973 15.3784 36.2198C15.4207 36.679 15.095 37.1441 14.6495 37.2421C14.5178 37.2708 14.378 37.2685 14.2422 37.2685C12.6783 37.2703 11.1143 37.2694 9.55038 37.2694C9.55084 37.2694 9.55084 37.2689 9.55084 37.2685Z" fill="#243906"/>
<path d="M24.8294 6.56189C23.2286 6.56189 21.6278 6.56326 20.0274 6.56098C19.3714 6.56007 18.9974 6.18195 19.0142 5.54554C19.0274 5.03075 19.4402 4.64671 19.9896 4.64626C21.7344 4.64444 23.4796 4.64535 25.2244 4.64535C26.7036 4.64535 28.1833 4.64352 29.6625 4.64671C30.1641 4.64762 30.5809 5.0016 30.6378 5.46035C30.6998 5.96055 30.4092 6.40199 29.9231 6.52863C29.8151 6.55688 29.6985 6.55961 29.586 6.55961C28.0006 6.5628 26.4148 6.56189 24.8294 6.56189Z" fill="#243906"/>
<path d="M24.8035 10.6851C26.3961 10.6851 27.9888 10.6861 29.5818 10.6847C30.1668 10.6842 30.6424 11.1125 30.641 11.6427C30.6397 12.183 30.1786 12.6131 29.5896 12.6131C26.4034 12.6126 23.2172 12.6103 20.031 12.6072C19.5294 12.6067 19.1422 12.3324 19.026 11.9079C18.9153 11.5042 19.0752 11.045 19.442 10.8446C19.6128 10.7512 19.8287 10.7015 20.0246 10.7002C21.6177 10.6888 23.2108 10.6938 24.8039 10.6938C24.8035 10.6911 24.8035 10.6879 24.8035 10.6851Z" fill="#243906"/>
<path d="M4.75426 17.2625C4.86633 17.2625 4.95562 17.2625 5.04445 17.2625C8.71764 17.2639 12.3913 17.2648 16.0645 17.2694C16.2066 17.2694 16.3519 17.2899 16.49 17.325C16.6608 17.3682 16.766 17.4931 16.7674 17.6712C16.7688 17.8566 16.6658 17.9887 16.4895 18.0461C16.4052 18.0734 16.3109 18.0794 16.2212 18.0794C12.343 18.0816 8.46434 18.0821 4.58615 18.0825C4.0618 18.0825 3.93926 17.9618 3.93926 17.4429C3.93881 14.0736 3.93926 10.7043 3.93926 7.33496C3.93926 6.80378 3.93516 6.27259 3.94245 5.74141C3.94427 5.62342 3.95065 5.47217 4.02035 5.39746C4.10691 5.30453 4.26863 5.21843 4.3848 5.23346C4.50051 5.24804 4.6349 5.37149 4.69686 5.48265C4.7579 5.59244 4.75244 5.74642 4.75244 5.88127C4.75517 9.55491 4.75426 13.2285 4.75426 16.9017C4.75426 17.0143 4.75426 17.1259 4.75426 17.2625Z" fill="#243906"/>
<path d="M15.9733 16.9209C15.4481 16.9209 14.9515 16.9209 14.4253 16.9209C14.4253 16.7072 14.4253 16.505 14.4253 16.3027C14.424 14.4668 14.4235 12.6309 14.4194 10.795C14.4189 10.5061 14.4909 10.246 14.6399 9.99682C15.0217 9.35995 15.392 8.71669 15.7674 8.07618C15.7998 8.02105 15.8371 7.96866 15.9013 7.92083C15.9984 10.9139 16.0462 13.9014 15.9733 16.9209Z" fill="#243906"/>
<path d="M8.99463 13.7616C9.32491 13.0696 9.6438 12.4008 9.96315 11.732C10.0707 11.5065 10.175 11.2788 10.2875 11.0555C10.4096 10.8127 10.5135 10.7735 10.7882 10.8606C11.3075 11.0246 11.8278 11.1863 12.3444 11.3594C12.5193 11.4182 12.6227 11.3808 12.717 11.2186C13.5521 9.78407 14.3939 8.35315 15.2326 6.92087C15.27 6.85664 15.2982 6.78739 15.3379 6.7063C15.2367 6.69901 15.1547 6.69263 15.008 6.6817C15.4681 6.32773 15.8864 6.00565 16.3433 5.65441C16.2617 6.22933 16.1879 6.75095 16.1082 7.31311C16.0267 7.21562 15.9715 7.14911 15.9005 7.06392C15.8071 7.21698 15.7192 7.35593 15.6362 7.49807C14.8017 8.92397 13.9689 10.3508 13.1329 11.7758C12.9083 12.158 12.8509 12.1789 12.4378 12.0514C11.9822 11.9106 11.5285 11.7639 11.0734 11.6204C10.7813 11.5284 10.7649 11.5362 10.6383 11.8045C10.2789 12.5648 9.91987 13.3251 9.55998 14.0855C9.5372 14.1333 9.51396 14.1811 9.48845 14.2276C9.33493 14.5101 9.24109 14.5511 8.93814 14.4285C8.48896 14.2463 8.04524 14.0513 7.59879 13.8627C7.33411 13.7506 7.06852 13.6404 6.78015 13.5197C6.21252 14.6472 5.64626 15.7724 5.05494 16.9468C4.97476 16.2321 4.93968 15.6007 5.31188 14.987C5.67223 14.3925 5.95012 13.7484 6.26172 13.1247C6.44987 12.7479 6.54417 12.7129 6.94051 12.8828C7.61565 13.1725 8.29124 13.4609 8.99463 13.7616Z" fill="#243906"/>
<path d="M23.7447 23.2996C23.7447 25.4872 23.7447 27.6762 23.7447 29.8797C21.5539 29.8797 19.3732 29.8797 17.1601 29.8797C17.1291 28.1668 17.7368 26.7099 18.8589 25.4512C20.2506 23.89 22.2364 23.2144 23.7447 23.2996ZM23.3379 23.7C23.1871 23.7 23.0568 23.6827 22.9325 23.7028C21.6774 23.906 20.5481 24.3848 19.6051 25.2553C18.4543 26.3177 17.7468 27.6138 17.5664 29.18C17.5263 29.528 17.5423 29.5381 17.8949 29.5376C19.6246 29.5349 21.3544 29.5317 23.0842 29.528C23.1653 29.528 23.2464 29.5194 23.3375 29.5144C23.3379 27.5719 23.3379 25.648 23.3379 23.7Z" fill="#243906"/>
<path d="M12.2314 12.4049C13.0177 12.8149 13.3142 12.2304 13.6796 11.6874C13.6796 13.4723 13.6796 15.1943 13.6796 16.925C13.1958 16.925 12.7215 16.925 12.2314 16.925C12.2314 15.4316 12.2314 13.9479 12.2314 12.4049Z" fill="#243906"/>
<path d="M11.4574 16.9272C10.9435 16.9272 10.4533 16.9272 9.9695 16.9272C9.95356 16.9076 9.93579 16.8958 9.93625 16.8844C9.94035 16.0822 9.92212 15.2781 9.96313 14.4777C9.97861 14.1788 10.108 13.8768 10.2287 13.5953C10.4287 13.1301 10.6651 12.681 10.8834 12.2236C10.9376 12.1097 11.0036 12.0222 11.1435 12.0769C11.287 12.1329 11.4829 12.1142 11.4815 12.3643C11.4738 13.834 11.4751 15.3036 11.4724 16.7733C11.4719 16.8174 11.4637 16.8616 11.4574 16.9272Z" fill="#243906"/>
<path d="M7.6785 14.3538C8.16686 14.552 8.62971 14.7369 9.08892 14.931C9.1363 14.9511 9.19051 15.0258 9.19096 15.0754C9.1978 15.6804 9.19552 16.2858 9.19552 16.9132C8.68529 16.9132 8.19191 16.9132 7.6785 16.9132C7.6785 16.069 7.6785 15.2253 7.6785 14.3538Z" fill="#243906"/>
<path d="M6.92228 16.9241C6.45168 16.9241 6.00888 16.9241 5.52872 16.9241C5.98974 16.0002 6.43893 15.101 6.88811 14.2012C6.8995 14.2053 6.91089 14.209 6.92273 14.2131C6.92228 15.1092 6.92228 16.0048 6.92228 16.9241Z" fill="#243906"/>
</svg>
