<svg width="35" height="41" viewBox="0 0 35 41" fill="none" xmlns="http://www.w3.org/2000/svg">
<path d="M13.1763 39.6845C13.1763 40.1327 13.1763 40.5292 13.1763 40.9808C12.3868 40.9808 11.6042 40.98 10.8216 40.9808C8.09531 40.9834 5.36905 40.9619 2.64365 40.9998C1.33353 41.0179 0.00702912 39.763 0.00961488 38.4132C0.0147864 36.0619 0.00703017 33.7105 0.00530632 31.3592C0.00272056 27.1728 -0.000726926 22.9865 0.000134997 18.8001C0.00099692 15.9472 0.0165122 13.0942 0.00616909 10.2412C0.00358332 9.50342 0.269914 8.91732 0.78362 8.4062C3.35387 5.84801 5.92068 3.28465 8.48145 0.717847C8.98826 0.210174 9.57696 0.00503568 10.2958 0.00589761C15.8621 0.0162407 21.4284 0.0041746 26.9947 0.00676037C27.6618 0.00676037 28.3376 -0.0647789 28.9745 0.25758C29.802 0.676475 30.3028 1.33843 30.3122 2.24948C30.3441 5.33172 30.326 8.41395 30.3269 11.4962C30.3278 14.2776 30.3277 17.0599 30.3277 19.8413C30.3277 19.9835 30.3277 20.1258 30.3277 20.3042C29.9037 20.3042 29.4969 20.3042 29.0271 20.3042C29.0271 19.4233 29.0271 18.5398 29.0271 17.6572C29.0288 12.7399 29.0297 7.82181 29.0306 2.90454C29.0306 2.833 29.0262 2.76147 29.0228 2.68993C28.9788 1.73405 28.5591 1.31947 27.5911 1.31602C25.6113 1.30999 23.6315 1.31688 21.6516 1.31688C17.979 1.31688 14.3063 1.31516 10.6337 1.3143C10.5345 1.3143 10.4346 1.3143 10.2596 1.3143C10.2596 1.88489 10.2596 2.43738 10.2596 2.98987C10.2596 4.58185 10.2544 6.17296 10.2613 7.76493C10.2674 9.15779 9.21754 10.2464 7.81605 10.2542C5.75002 10.2662 3.68399 10.2611 1.61796 10.2628C1.53349 10.2628 1.44903 10.2628 1.32922 10.2628C1.32146 10.3998 1.30767 10.5231 1.30767 10.6455C1.31112 14.7603 1.31801 18.8751 1.31974 22.9899C1.3206 27.3625 1.31629 31.7359 1.3137 36.1084C1.31284 36.7678 1.29991 37.4271 1.30594 38.0865C1.31543 39.0725 1.94463 39.6845 2.92895 39.6845C6.19994 39.6845 9.47094 39.6845 12.7419 39.6845C12.8695 39.6845 12.9971 39.6845 13.1763 39.6845Z" fill="#243906"/>
<path d="M21.4379 40.8852C20.5225 40.8852 19.6382 40.8852 18.7151 40.8852C18.7151 33.3218 18.7151 25.7739 18.7151 18.189C19.6141 18.189 20.5087 18.189 21.4379 18.189C21.4379 25.7403 21.4379 33.2865 21.4379 40.8852Z" fill="#243906"/>
<path d="M31.4577 21.616C32.4084 21.616 33.3212 21.616 34.2702 21.616C34.2702 28.0356 34.2702 34.4354 34.2702 40.8697C33.3419 40.8697 32.4188 40.8697 31.4577 40.8697C31.4577 34.4664 31.4577 28.0675 31.4577 21.616Z" fill="#243906"/>
<path d="M25.7484 24.8982C25.7484 30.2395 25.7484 35.549 25.7484 40.8843C24.8089 40.8843 23.8969 40.8843 22.9411 40.8843C22.9411 35.5705 22.9411 30.2507 22.9411 24.8982C23.8607 24.8982 24.7847 24.8982 25.7484 24.8982Z" fill="#243906"/>
<path d="M30.0519 40.8834C29.0659 40.8834 28.123 40.8834 27.1481 40.8834C27.1481 37.1013 27.1481 33.3398 27.1481 29.5448C28.1204 29.5448 29.0711 29.5448 30.0519 29.5448C30.0519 33.3269 30.0519 37.0892 30.0519 40.8834Z" fill="#243906"/>
<path d="M26.4344 15.5179C26.4344 15.9446 26.4344 16.3411 26.4344 16.7755C18.9366 16.7755 11.4422 16.7755 3.9124 16.7755C3.9124 16.3704 3.9124 15.9627 3.9124 15.5179C11.393 15.5179 18.8883 15.5179 26.4344 15.5179Z" fill="#243906"/>
<path d="M14.4813 40.8671C14.4813 38.6089 14.4813 36.3799 14.4813 34.1096C15.4165 34.1096 16.3387 34.1096 17.3015 34.1096C17.3015 36.3523 17.3015 38.5908 17.3015 40.8671C16.3758 40.8671 15.4544 40.8671 14.4813 40.8671Z" fill="#243906"/>
<path d="M12.854 9.02853C12.854 8.59757 12.854 8.20194 12.854 7.77271C17.3756 7.77271 21.8844 7.77271 26.4232 7.77271C26.4232 8.17608 26.4232 8.58291 26.4232 9.02853C21.9171 9.02853 17.4101 9.02853 12.854 9.02853Z" fill="#243906"/>
<path d="M12.8583 12.9011C12.8583 12.4762 12.8583 12.0797 12.8583 11.647C17.3713 11.647 21.8783 11.647 26.4189 11.647C26.4189 12.0504 26.4189 12.4564 26.4189 12.9011C21.9171 12.9011 17.411 12.9011 12.8583 12.9011Z" fill="#243906"/>
<path d="M17.3989 19.3914C17.3989 19.8146 17.3989 20.2111 17.3989 20.6472C12.9049 20.6472 8.42286 20.6472 3.90897 20.6472C3.90897 20.2378 3.90897 19.8319 3.90897 19.3914C8.38838 19.3914 12.8704 19.3914 17.3989 19.3914Z" fill="#243906"/>
<path d="M17.3955 23.2623C17.3955 23.6864 17.3955 24.0829 17.3955 24.5173C12.9057 24.5173 8.42715 24.5173 3.91412 24.5173C3.91412 24.1105 3.91412 23.7036 3.91412 23.2623C8.38836 23.2623 12.8678 23.2623 17.3955 23.2623Z" fill="#243906"/>
<path d="M17.3868 28.402C12.8902 28.402 8.41939 28.402 3.91412 28.402C3.91412 27.9822 3.91412 27.5754 3.91412 27.1349C8.39957 27.1349 12.8807 27.1349 17.3868 27.1349C17.3868 27.553 17.3868 27.9495 17.3868 28.402Z" fill="#243906"/>
<path d="M17.4015 31.4446C17.4015 31.8781 17.4015 32.2746 17.4015 32.703C12.9048 32.703 8.42112 32.703 3.90465 32.703C3.90465 32.2979 3.90465 31.8911 3.90465 31.4446C8.39096 31.4446 12.8721 31.4446 17.4015 31.4446Z" fill="#243906"/>
</svg>
