<svg width="51" height="41" viewBox="0 0 51 41" fill="none" xmlns="http://www.w3.org/2000/svg">
<path d="M10.326 40.9445C10.1132 40.9445 9.90158 40.9445 9.68872 40.9445C9.59567 40.8986 9.50771 40.8349 9.40956 40.8107C8.20118 40.5098 7.41981 39.8024 7.03741 38.58C5.90169 34.96 4.71371 31.3552 3.55505 27.7428C3.0847 26.2757 2.63983 24.8009 2.17841 23.3108C3.30011 23.8131 4.32749 24.3624 5.4135 24.7423C9.79961 26.2719 14.3004 26.4541 18.8548 25.7225C21.5647 25.2866 24.0988 24.3739 26.4123 22.8609C28.8762 21.251 30.2758 18.1166 29.075 15.4729C28.9603 15.2193 28.9692 14.8254 29.0814 14.5654C29.6117 13.3315 29.6002 12.0772 29.2522 10.8255C29.0546 10.1143 28.8736 9.46802 29.2955 8.7593C29.4651 8.47505 29.4791 8.05442 29.4511 7.70389C29.3708 6.68288 29.2331 5.6657 29.1082 4.56439C29.075 4.58224 29.1604 4.51978 29.256 4.48919C32.69 3.3968 36.1112 2.25853 39.5668 1.2388C41.4928 0.670304 43.0797 1.59698 43.6725 3.45289C45.5666 9.39026 47.4531 15.3302 49.337 21.2714C49.7717 22.6416 50.1822 24.0183 50.6041 25.3924C50.6041 25.7748 50.6041 26.1572 50.6041 26.5396C50.1375 27.8155 49.281 28.6198 47.9528 29.0379C39.4635 31.707 30.9883 34.4182 22.5067 37.109C18.4495 38.3965 14.3858 39.666 10.326 40.9445ZM9.12021 33.3858C9.38024 34.2105 9.58547 34.8784 9.80089 35.5425C10.1297 36.5571 10.247 36.6145 11.2553 36.2958C17.7866 34.2347 24.3206 32.1774 30.8506 30.1112C32.5077 29.5873 34.1546 29.029 35.8078 28.4936C36.3113 28.3305 36.4681 28.0016 36.3177 27.5121C36.1303 26.9041 35.9442 26.2961 35.739 25.6945C35.4483 24.8455 35.3566 24.7945 34.4885 25.0673C27.8539 27.1527 21.2206 29.2444 14.5872 31.3348C13.0309 31.8256 11.4694 32.3061 9.92325 32.8275C9.62625 32.9269 9.38661 33.1946 9.12021 33.3858ZM39.2519 5.22084C39.1589 5.23104 39.0034 5.22467 38.8644 5.26928C36.7243 5.9474 34.5777 6.61023 32.4516 7.32913C31.6422 7.60319 31.2751 8.33994 31.5237 9.18122C32.1584 11.3341 32.8264 13.4781 33.53 15.6093C33.8155 16.4761 34.5025 16.8113 35.4152 16.5437C37.5082 15.9293 39.5935 15.2868 41.6649 14.6036C42.6693 14.2722 43.0517 13.5112 42.7407 12.4941C42.097 10.3883 41.4087 8.29533 40.7165 6.20488C40.5049 5.57392 39.9543 5.22594 39.2519 5.22084Z" fill="#243906"/>
<path d="M15.1698 0.155396C16.1971 0.28796 17.2271 0.401406 18.2493 0.558189C20.8981 0.964806 23.4448 1.69263 25.6169 3.32803C26.3307 3.86593 26.9884 4.55298 27.4766 5.29865C28.3956 6.70333 28.2656 8.16409 27.2892 9.52288C26.2338 10.99 24.7195 11.8453 23.1007 12.526C19.4947 14.0416 15.7153 14.3857 11.8595 14.0951C9.37259 13.9077 6.93926 13.4386 4.65507 12.3845C4.07892 12.1181 3.51552 11.8147 2.97761 11.4757C1.49773 10.5426 0.34799 9.3457 0.00128174 7.54843C0.00128174 7.33556 0.00128174 7.12397 0.00128174 6.9111C0.386229 4.99783 1.65068 3.77161 3.22489 2.79012C5.03236 1.66205 7.03231 1.05403 9.10873 0.690755C10.3566 0.472788 11.6185 0.331299 12.8754 0.155396C13.6402 0.155396 14.405 0.155396 15.1698 0.155396Z" fill="#243906"/>
<path d="M0.00127591 17.1084C0.0879529 16.9478 0.174626 16.7872 0.284247 16.5833C2.1376 18.1868 4.26757 19.2078 6.54793 19.9254C9.94746 20.9949 13.44 21.0459 16.9504 20.7616C19.0294 20.5933 21.0625 20.1829 23.0229 19.4449C24.4455 18.9095 25.7507 18.1766 26.9285 17.2155C27.2051 16.9899 27.4881 16.7719 27.8246 16.5068C28.1534 17.1645 28.0923 17.7916 27.9661 18.4009C27.6793 19.7929 26.7972 20.782 25.6819 21.5787C23.7839 22.9349 21.6463 23.7545 19.3697 24.1509C14.7912 24.9476 10.2444 24.9068 5.80607 23.3224C5.11011 23.0738 4.42944 22.7641 3.77299 22.4212C1.96935 21.478 0.536632 20.1918 0 18.1281C0.00127466 17.7878 0.00127591 17.4475 0.00127591 17.1084Z" fill="#243906"/>
<path d="M0.00128174 11.8823C0.0930574 11.6949 0.183562 11.5088 0.291908 11.2871C4.24081 14.7733 9.02716 15.64 14.0391 15.7012C19.0932 15.7624 23.8018 14.6076 27.9036 11.31C28.3294 12.8613 27.8628 14.0824 26.9387 15.1608C25.534 16.8 23.6666 17.7203 21.6488 18.3143C16.215 19.9114 10.7964 19.8451 5.44025 17.9535C3.7628 17.3608 2.20644 16.5017 1.09876 15.0588C0.636061 14.4559 0.362011 13.7102 0.00128174 13.0295C0.00128174 12.6471 0.00128174 12.2647 0.00128174 11.8823Z" fill="#243906"/>
</svg>
